# xmcd
#
# Track frame offsets: 
#        150
#        29688
#        47847
#        62973
#        81473
#        106789
#        124477
#        146561
#        171258
#        187980
#        206129
#        226479
#        249391
#        266349
#        303590
#
# Disc length: 4088 seconds
#
# Revision: 2
# Processed by: cddbd v1.5.2PL0 Copyright (c) Steve Scherf et al.
# Submitted via: ExactAudioCopy v0.95b4
#
DISCID=e00ff60f
DTITLE=REO Speedwagon - Playlist: The Very Best Of REO Speedwagon
DYEAR=2008
DGENRE=Rock
TTITLE0=Golden Country
TTITLE1=Take It On The Run
TTITLE2=Keep On Loving You
TTITLE3=Keep Pushin'
TTITLE4=Roll With The Changes
TTITLE5=Keep The Fire Burnin'
TTITLE6=Can't Fight This Feeling
TTITLE7=Back On The Road Again
TTITLE8=Time For Me To Fly
TTITLE9=That Ain't Love
TTITLE10=In My Dreams
TTITLE11=Here With Me
TTITLE12=Don't Let Him Go
TTITLE13=Ridin' The Storm Out (Live)
TTITLE14=Data Track
EXTD=
EXTT0=
EXTT1=
EXTT2=
EXTT3=
EXTT4=
EXTT5=
EXTT6=
EXTT7=
EXTT8=
EXTT9=
EXTT10=
EXTT11=
EXTT12=
EXTT13=
EXTT14=
PLAYORDER=
